<?xml version="1.0" standalone="no"?>
<!DOCTYPE svg PUBLIC "-//W3C//DTD SVG 1.1//EN" "http://www.w3.org/Graphics/SVG/1.1/DTD/svg11.dtd" >
<svg xmlns="http://www.w3.org/2000/svg">
<metadata></metadata>
<defs>
<font id="TertreMedBold" horiz-adv-x="1105" >
<font-face units-per-em="2048" ascent="1536" descent="-512" />
<missing-glyph horiz-adv-x="409" />
<glyph unicode="&#xfb01;" horiz-adv-x="1146" d="M41 0v184l123 21v614l-123 21v184h123v195q0 131 88.5 224t218.5 93h512v-225h-481q-39 0 -65.5 -26.5t-26.5 -65.5v-195h573v-819l123 -21v-184h-492v184l123 21v614l-327 -20v-594l122 -21v-184h-491z" />
<glyph unicode="&#xfb02;" horiz-adv-x="1146" d="M41 0v184l123 21v614l-123 21v184h123v195q0 131 88.5 224t218.5 93h512v-1331l123 -21v-184h-492v184l123 21v1106h-235q-39 0 -65.5 -26.5t-26.5 -65.5v-195h225v-205l-225 -20v-594l122 -21v-184h-491z" />
<glyph unicode="&#xfb03;" horiz-adv-x="1720" d="M41 0v184l123 21v614l-123 21v184h123v174q0 132 89 225t218 93h164v-226h-133q-39 0 -65.5 -26.5t-26.5 -65.5v-174h327v195q0 131 88.5 224t218.5 93h512v-225h-481q-39 0 -65.5 -26.5t-26.5 -65.5v-195h573v-819l123 -21v-184h-491v184l123 21v614l-328 -20v-594 l123 -21v-184h-492v184l123 21v614l-327 -20v-594l122 -21v-184h-491z" />
<glyph unicode="&#xfb04;" horiz-adv-x="1720" d="M41 0v184l123 21v614l-123 21v184h123v174q0 132 89 225t218 93h164v-226h-133q-39 0 -65.5 -26.5t-26.5 -65.5v-174h327v195q0 131 88.5 224t218.5 93h512v-1331l123 -21v-184h-491v184l123 21v1106h-236q-39 0 -65.5 -26.5t-26.5 -65.5v-195h225v-205l-225 -20v-594 l123 -21v-184h-492v184l123 21v614l-327 -20v-594l122 -21v-184h-491z" />
<glyph horiz-adv-x="0" />
<glyph horiz-adv-x="2048" />
<glyph unicode=" "  horiz-adv-x="409" />
<glyph unicode="&#x09;" horiz-adv-x="409" />
<glyph unicode="&#xa0;" horiz-adv-x="409" />
<glyph unicode="!" horiz-adv-x="471" d="M102 0v266h267v-266h-267zM113 389v1045h245v-1045h-245z" />
<glyph unicode="&#x22;" horiz-adv-x="778" d="M82 1004v430h246v-430h-246zM451 1004v430h245v-430h-245z" />
<glyph unicode="#" horiz-adv-x="1269" d="M61 410v225h246v164h-246v225h246v410h246v-410h164v410h246v-410h245v-225h-245v-164h245v-225h-245v-410h-246v410h-164v-410h-246v410h-246zM553 635h164v164h-164v-164z" />
<glyph unicode="$" horiz-adv-x="1085" d="M61 983q0 157 100 263t259 106h10l21 184h204v-184h287v-348h-184l-21 122h-297q-66 0 -99.5 -34.5t-33.5 -87.5v-41q0 -41 29 -77t74 -46l327 -76q128 -29 207.5 -133.5t79.5 -241.5q0 -157 -108 -265t-261 -124l-20 -184h-205v184h-328v348h185l20 -123h318 q62 0 107.5 45t45.5 109v10q0 53 -36 94.5t-87 53.5l-307 77q-129 32 -208 126.5t-79 242.5z" />
<glyph unicode="%" horiz-adv-x="1433" d="M61 1126q0 128 90.5 218t217.5 90h931l-890 -1434h-267l748 1208h-227q12 -41 12 -82q0 -128 -90 -217.5t-217 -89.5q-128 0 -218 90t-90 217zM287 1126q0 -34 24 -58t58 -24t58 24t24 58t-24 58t-58 24t-58 -24t-24 -58zM758 307q0 127 90 217t217 90t217 -90t90 -217 t-90 -217t-217 -90t-217 90t-90 217zM983 307q0 -34 24 -58t58 -24t58 24t24 58t-24 58t-58 24t-58 -24t-24 -58z" />
<glyph unicode="&#x26;" horiz-adv-x="1208" d="M61 430q0 194 144 307q-60 53 -91.5 132.5t-31.5 166.5q0 169 110.5 283.5t278.5 114.5h512v-328h-184l-21 102h-307q-61 0 -102 -41t-41 -102v-61q0 -62 41 -103t102 -41h287l41 164h205v-164h163v-205l-163 -20v-430l122 -21v-184h-634q-178 0 -304.5 125.5 t-126.5 304.5zM307 420q0 -85 52.5 -140t132.5 -55h266v410h-266q-80 0 -132.5 -55t-52.5 -140v-20z" />
<glyph unicode="'" horiz-adv-x="409" d="M82 1004v430h246v-430h-246z" />
<glyph unicode="(" horiz-adv-x="593" d="M82 389v471q0 115 27.5 227t66.5 189.5t78 138.5t66 91l28 30h246q-11 -11 -29 -31.5t-63.5 -88.5t-81 -141.5t-64 -186.5t-28.5 -228v-471q0 -115 27.5 -227t66.5 -189.5t78 -138.5t66 -91l28 -30h-246q-11 11 -29 31.5t-63.5 88.5t-81 141.5t-64 186.5t-28.5 228z" />
<glyph unicode=")" horiz-adv-x="593" d="M0 -287q11 11 29 31.5t63.5 88.5t81 141.5t64 186.5t28.5 228v471q0 115 -27.5 227t-66.5 189.5t-78 138.5t-66 91l-28 30h246q11 -11 29 -31.5t63.5 -88.5t81 -141.5t64 -186.5t28.5 -228v-471q0 -115 -27.5 -227t-66.5 -189.5t-78 -138.5t-66 -91l-28 -30h-246z" />
<glyph unicode="*" horiz-adv-x="909" d="M41 1038l76 232l225 -82l-8 246h246l-13 -246l226 82l75 -232l-227 -65l152 -195l-205 -143l-133 201l-133 -201l-205 143l151 195z" />
<glyph unicode="+" horiz-adv-x="1146" d="M82 410v225h369v389h245v-389h369v-225h-369v-410h-245v410h-369z" />
<glyph unicode="," horiz-adv-x="430" d="M82 -246v512h266l-41 -512h-225z" />
<glyph unicode="-" horiz-adv-x="675" d="M82 410v225h512v-225h-512z" />
<glyph unicode="." horiz-adv-x="430" d="M82 0v266h266v-266h-266z" />
<glyph unicode="/" horiz-adv-x="819" d="M0 0l565 1434h254l-565 -1434h-254z" />
<glyph unicode="0" horiz-adv-x="1126" d="M82 389v655q0 160 114 275t275 115h184q161 0 275 -115t114 -275v-655q0 -160 -114 -274.5t-275 -114.5h-184q-161 0 -275 114.5t-114 274.5zM328 369q0 -62 41 -103t102 -41h184q61 0 102.5 41.5t41.5 102.5v696q0 64 -41 103.5t-103 39.5h-184q-62 0 -102.5 -39.5 t-40.5 -103.5v-696z" />
<glyph unicode="1" horiz-adv-x="614" d="M41 1188v205l410 41v-1229l122 -21v-184h-491v184l123 21v1003z" />
<glyph unicode="2" horiz-adv-x="1085" d="M61 0v348q0 158 93.5 280t234.5 160l266 72q49 13 86 54t37 90v61q0 56 -44 99.5t-99 43.5h-307l-21 -123h-184v349h522q156 0 267.5 -112.5t111.5 -266.5v-41q0 -119 -82 -223.5t-194 -135.5l-256 -71q-85 -24 -135 -85t-50 -151v-123h676v-225h-922z" />
<glyph unicode="3" horiz-adv-x="1024" d="M41 0v225h491q80 0 132.5 52t52.5 133v41q0 81 -52.5 132.5t-132.5 51.5h-307v225h328q56 0 99.5 43t43.5 101v61q0 61 -42 102t-101 41h-307l-21 -123h-184v349h512q165 0 277 -116.5t112 -273.5q0 -81 -32 -162.5t-91 -133.5q67 -52 105.5 -140.5t38.5 -177.5 q0 -179 -124 -304.5t-307 -125.5h-491z" />
<glyph unicode="4" horiz-adv-x="1116" d="M0 389l563 1045h277l-451 -820h256v369h246v-369h184v-225h-184v-184l123 -21v-184h-492v184l123 21v184h-645z" />
<glyph unicode="5" horiz-adv-x="1044" d="M82 0v225h450q93 0 149 50.5t56 134.5v41q0 84 -56 134t-149 50h-450v799h819v-349h-184l-21 123h-368v-348h204q122 0 225.5 -55.5t164.5 -155t61 -219.5t-61 -219.5t-164.5 -155t-225.5 -55.5h-450z" />
<glyph unicode="6" d="M82 410v634q0 159 123.5 274.5t286.5 115.5h471v-349h-185l-20 123h-266q-68 0 -116 -50t-48 -114v-184h286q179 0 304.5 -123.5t125.5 -306.5t-125.5 -306.5t-304.5 -123.5h-82q-119 0 -221.5 52t-165.5 147t-63 211zM328 420q0 -84 59 -139.5t145 -55.5h82 q80 0 132.5 52t52.5 133v41q0 81 -52.5 132.5t-132.5 51.5h-286v-215z" />
<glyph unicode="7" horiz-adv-x="1003" d="M41 0l590 1208h-385l-21 -123h-184v349h963l-697 -1434h-266z" />
<glyph unicode="8" horiz-adv-x="1126" d="M61 430q0 189 142 320q-58 51 -89.5 130t-31.5 164q0 163 111 276.5t278 113.5h184q167 0 278 -113.5t111 -276.5q0 -85 -31 -164t-89 -130q141 -130 141 -320q0 -179 -126 -304.5t-304 -125.5h-143q-178 0 -304.5 125.5t-126.5 304.5zM307 410q0 -81 52.5 -133 t132.5 -52h143q80 0 132 52t52 133v41q0 81 -52 132.5t-132 51.5h-143q-80 0 -132.5 -51.5t-52.5 -132.5v-41zM328 1004q0 -62 41 -103t102 -41h184q61 0 102.5 41t41.5 103v61q0 61 -41 102t-103 41h-184q-61 0 -102 -41t-41 -102v-61z" />
<glyph unicode="9" d="M61 993q0 117 56 218t155.5 162t219.5 61h92q179 0 309.5 -122t130.5 -298v-594q0 -177 -126 -298.5t-304 -121.5h-451v225h451q82 0 133 54.5t51 140.5v133h-286q-118 0 -218 60.5t-156.5 161.5t-56.5 218zM307 963q0 -79 52.5 -132t132.5 -53h286v236q0 85 -54.5 139.5 t-139.5 54.5h-92q-78 0 -131.5 -55t-53.5 -139v-51z" />
<glyph unicode=":" horiz-adv-x="430" d="M82 0v266h266v-266h-266zM82 758v266h266v-266h-266z" />
<glyph unicode=";" horiz-adv-x="430" d="M82 -246v512h266l-41 -512h-225zM82 758v266h266v-266h-266z" />
<glyph unicode="&#x3c;" horiz-adv-x="1003" d="M41 430v164l901 471v-246l-594 -307l594 -307v-246z" />
<glyph unicode="=" horiz-adv-x="1146" d="M82 225v226h983v-226h-983zM82 594v225h983v-225h-983z" />
<glyph unicode="&#x3e;" horiz-adv-x="1003" d="M61 -41v246l594 307l-594 307v246l902 -471v-164z" />
<glyph unicode="?" horiz-adv-x="962" d="M41 1085v349h471q163 0 276 -113t113 -287q0 -135 -73 -244t-193 -135l-225 -47q-37 -7 -59.5 -36.5t-22.5 -69.5v-113h-246v113q0 117 67.5 204t178.5 113l225 53q43 11 72.5 48t29.5 84v61q0 61 -41.5 102t-101.5 41h-266l-21 -123h-184zM72 0v266h266v-266h-266z" />
<glyph unicode="@" horiz-adv-x="1495" d="M82 532v451q0 187 134 319t323 132h417q188 0 322.5 -132t134.5 -319v-369q0 -138 -84.5 -222.5t-222.5 -84.5h-389q-147 0 -227 74.5t-80 212.5v287q0 125 58 185t187 60h430v-174l-61 -10v-420h61q31 0 56.5 25.5t25.5 56.5v369q0 100 -63.5 167.5t-161.5 67.5h-389 q-97 0 -161 -67t-64 -166v-443q0 -130 89.5 -218.5t217.5 -88.5h717v-225h-738q-144 0 -266.5 71.5t-194 194t-71.5 266.5zM645 604q0 -38 22 -60t60 -22h61v389h-112q-14 0 -22.5 -8.5t-8.5 -21.5v-277z" />
<glyph unicode="A" horiz-adv-x="1372" d="M41 0v184l123 21l328 1024l-123 20v185h450l389 -1229l123 -21v-184h-491v184l123 21l-72 225h-412l-69 -225l122 -21v-184h-491zM551 655h270l-135 430z" />
<glyph unicode="B" horiz-adv-x="1187" d="M41 0v184l123 21v1024l-123 20v185h696q158 0 263.5 -107t105.5 -262q0 -95 -43 -173t-121 -128q81 -54 132.5 -144t51.5 -200q0 -175 -127.5 -297.5t-302.5 -122.5h-655zM410 225h286q72 0 128.5 51t56.5 123v82q0 71 -56.5 122.5t-128.5 51.5h-286v-430zM410 881h286 q68 0 116 47t48 116t-48 116.5t-116 47.5h-286v-327z" />
<glyph unicode="C" horiz-adv-x="1024" d="M82 518v537q0 157 111.5 268t269.5 111h520v-349h-184l-21 123h-295q-64 0 -109.5 -44.5t-45.5 -108.5v-543q0 -118 87.5 -202.5t207.5 -84.5h360v-225h-381q-106 0 -202.5 41t-166 110t-110.5 165t-41 202z" />
<glyph unicode="D" horiz-adv-x="1208" d="M41 0v184l123 21v1024l-123 20v185h696q159 0 274 -111.5t115 -267.5v-543q0 -106 -39.5 -201t-107.5 -163t-163 -108t-202 -40h-573zM410 225h184q117 0 202 84.5t85 202.5v543q0 63 -50 108t-114 45h-307v-983z" />
<glyph unicode="E" horiz-adv-x="1085" d="M41 0v184l123 21v1024l-123 20v185h1003v-349h-184l-20 123h-430v-327h348l20 82h185v-431h-185l-20 123h-348v-430h430l20 144h184v-369h-1003z" />
<glyph unicode="F" horiz-adv-x="1085" d="M41 0v184l123 21v1024l-123 20v185h1003v-349h-184l-20 123h-430v-327h348l20 82h185v-431h-185l-20 123h-348v-450l122 -21v-184h-491z" />
<glyph unicode="G" horiz-adv-x="1208" d="M82 512v543q0 157 111.5 268t269.5 111h541v-349h-185l-20 123h-318q-62 0 -107.5 -44.5t-45.5 -108.5v-543q0 -119 84 -203t202 -84h185v430h-328v226h573v-676l123 -21v-184h-573q-107 0 -202 40t-163 108t-107.5 163t-39.5 201z" />
<glyph unicode="H" horiz-adv-x="1331" d="M41 0v184l123 21v1024l-123 20v185h491v-185l-122 -20v-348h512v348l-123 20v185h491v-185l-123 -20v-1024l123 -21v-184h-491v184l123 21v450h-512v-450l122 -21v-184h-491z" />
<glyph unicode="I" horiz-adv-x="573" d="M41 0v184l123 21v1024l-123 20v185h491v-185l-122 -20v-1024l122 -21v-184h-491z" />
<glyph unicode="J" horiz-adv-x="573" d="M-82 -41h62q79 0 131.5 57.5t52.5 126.5v1086l-123 20v185h491v-185l-122 -20v-1065q0 -110 -55.5 -208.5t-155.5 -160t-219 -61.5h-62v225z" />
<glyph unicode="K" horiz-adv-x="1249" d="M41 0v184l123 21v1024l-123 20v185h491v-185l-122 -20v-389l368 389l-102 20v185h532v-185l-123 -20l-471 -492l461 -532l133 -21v-184h-286l-512 625v-420l122 -21v-184h-491z" />
<glyph unicode="L" horiz-adv-x="1085" d="M41 0v184l123 21v1024l-123 20v185h491v-185l-122 -20v-1004h430q2 12 6.5 38.5t8 48t5.5 36.5h184v-348h-1003z" />
<glyph unicode="M" horiz-adv-x="1413" d="M41 0v184l123 21v1024l-123 20v185h348l318 -553l317 553h348v-185l-123 -20v-1024l123 -21v-184h-491v184l123 21v737l-297 -512l-297 512v-737l122 -21v-184h-491z" />
<glyph unicode="N" horiz-adv-x="1351" d="M41 0v184l123 21v1024l-123 20v185h369l532 -963v758l-123 20v185h492v-185l-123 -20v-1229h-246l-532 963v-758l122 -21v-184h-491z" />
<glyph unicode="O" horiz-adv-x="1187" d="M82 438v617q0 157 112 268t269 111h260q157 0 270 -111.5t113 -267.5v-617q0 -182 -130 -310t-314 -128h-138q-184 0 -313 128t-129 310zM328 438q0 -88 64 -150.5t151 -62.5h100q88 0 152.5 62t64.5 151v617q0 64 -46.5 108.5t-111.5 44.5h-219q-65 0 -110 -44.5 t-45 -108.5v-617z" />
<glyph unicode="P" horiz-adv-x="1167" d="M41 0v184l123 21v1024l-123 20v185h655q170 0 290 -120t120 -290q0 -169 -120 -289.5t-290 -120.5h-286v-409l122 -21v-184h-491zM410 840h286q68 0 116 47.5t48 116.5v40q0 69 -48 116.5t-116 47.5h-286v-368z" />
<glyph unicode="Q" horiz-adv-x="1187" d="M82 438v617q0 157 112 268t269 111h260q157 0 270 -111.5t113 -267.5v-617q0 -104 -46.5 -195.5t-127.5 -152.5l72 -131l102 -20v-123h-266l-103 190q-37 -6 -75 -6h-138q-184 0 -313 128t-129 310zM328 438q0 -88 64 -150.5t151 -62.5h75l-65 123l-102 21v123h266 l98 -183q45 58 45 129v617q0 64 -46.5 108.5t-111.5 44.5h-219q-65 0 -110 -44.5t-45 -108.5v-617z" />
<glyph unicode="R" horiz-adv-x="1228" d="M41 0v184l123 21v1024l-123 20v185h664q167 0 284 -117t117 -283q0 -125 -70.5 -229t-187.5 -150q49 -40 74 -108l129 -342l137 -21v-184h-328l-153 451q-17 51 -47.5 89.5t-64 57.5t-62.5 28t-52 9h-71v-430l122 -21v-184h-491zM410 860h295q65 0 110 45t45 109v41 q0 64 -45 108.5t-110 44.5h-295v-348z" />
<glyph unicode="S" horiz-adv-x="1126" d="M61 1055q0 158 111.5 268.5t271.5 110.5h539v-349h-184l-21 123h-334q-63 0 -100 -35t-37 -88v-61q0 -43 30 -76.5t73 -42.5l327 -71q142 -31 235 -145.5t93 -264.5q0 -177 -124.5 -300.5t-301.5 -123.5h-537v348h185l20 -123h318q79 0 136.5 57.5t57.5 137.5 q0 68 -42.5 118.5t-108.5 65.5l-320 72q-125 28 -206 133t-81 246z" />
<glyph unicode="T" horiz-adv-x="1126" d="M41 1065v369h1044v-369h-184l-20 143h-195v-1003l123 -21v-184h-492v184l123 21v1003h-194l-21 -143h-184z" />
<glyph unicode="U" horiz-adv-x="1331" d="M41 1249v185h491v-185l-122 -20v-770q0 -99 64.5 -166.5t160.5 -67.5h51q97 0 166.5 68t69.5 166v770l-123 20v185h491v-185l-123 -20v-750q0 -198 -141 -338.5t-340 -140.5h-51q-197 0 -334 140t-137 339v750z" />
<glyph unicode="V" horiz-adv-x="1351" d="M41 1249v185h491v-185l-122 -20l266 -860l266 860l-123 20v185h492v-185l-123 -20l-389 -1229h-246l-389 1229z" />
<glyph unicode="W" horiz-adv-x="2129" d="M41 1249v185h491v-185l-122 -20l266 -860l266 860l-123 20v185h492v-185l-123 -20l266 -860l266 860l-123 20v185h492v-185l-123 -20l-389 -1229h-246l-266 840l-266 -840h-246l-389 1229z" />
<glyph unicode="X" horiz-adv-x="1249" d="M41 0v184l123 21l328 512l-328 512l-123 20v185h491v-185l-102 -20l195 -305l194 305l-102 20v185h491v-185l-123 -20l-327 -512l327 -512l123 -21v-184h-491v184l102 21l-194 303l-195 -303l102 -21v-184h-491z" />
<glyph unicode="Y" horiz-adv-x="1290" d="M41 1249v185h491v-185l-102 -20l215 -379l215 379l-102 20v185h491v-185l-123 -20l-358 -615v-409l123 -21v-184h-492v184l123 21v409l-358 615z" />
<glyph unicode="Z" horiz-adv-x="1024" d="M0 0l645 1208h-399l-21 -123h-184v349h983l-645 -1209h420l20 103h185v-328h-1004z" />
<glyph unicode="[" horiz-adv-x="655" d="M102 -287v1823h512v-225h-266v-1372h266v-226h-512z" />
<glyph unicode="\" horiz-adv-x="819" d="M0 1434h254l565 -1434h-254z" />
<glyph unicode="]" horiz-adv-x="655" d="M41 -61h266v1372h-266v225h512v-1823h-512v226z" />
<glyph unicode="^" horiz-adv-x="1126" d="M41 532l430 902h184l430 -902h-245l-277 594l-276 -594h-246z" />
<glyph unicode="_" horiz-adv-x="983" d="M0 -102h983v-226h-983v226z" />
<glyph unicode="`" horiz-adv-x="696" d="M82 1434h266l266 -287h-245z" />
<glyph unicode="a" horiz-adv-x="1024" d="M61 297q0 100 67 180t169 107l317 80v53q0 33 -20.5 57.5t-50.5 24.5h-195l-20 -123h-185v348h420q129 0 213 -85.5t84 -211.5v-522l123 -21v-184h-625q-142 0 -219.5 80t-77.5 217zM307 307q0 -33 22.5 -57.5t59.5 -24.5h225v215l-245 -57q-27 -6 -44.5 -26t-17.5 -50z " />
<glyph unicode="b" horiz-adv-x="1044" d="M41 0v184l123 21v1106l-123 20v205h369v-512h256q124 0 210.5 -86t86.5 -211v-338q0 -159 -119.5 -274t-278.5 -115h-524zM410 225h155q62 0 107 41.5t45 102.5v358q0 32 -20.5 52t-51.5 20h-235v-574z" />
<glyph unicode="c" horiz-adv-x="860" d="M82 369v358q0 125 85.5 211t211.5 86h440v-348h-184l-21 123h-215q-31 0 -51 -20t-20 -52v-358q0 -61 44.5 -102.5t108.5 -41.5h338v-225h-338q-163 0 -281 106t-118 263z" />
<glyph unicode="d" horiz-adv-x="1044" d="M82 389v338q0 125 85.5 211t211.5 86h256v307l-123 21v184h369v-1331l123 -21v-184h-525q-161 0 -279 115t-118 274zM328 379q0 -62 45 -108t108 -46h154v574h-236q-31 0 -51 -20t-20 -52v-348z" />
<glyph unicode="e" horiz-adv-x="942" d="M82 389v338q0 125 82.5 211t204.5 86h204q135 0 221.5 -83.5t86.5 -213.5q0 -121 -73.5 -196t-182.5 -101l-297 -72q6 -63 44.5 -98t98.5 -35h369v-225h-369q-160 0 -274.5 114.5t-114.5 274.5zM328 594l245 61q62 15 62 72q0 33 -20.5 52.5t-51.5 19.5h-164 q-31 0 -51 -20.5t-20 -51.5v-133z" />
<glyph unicode="f" horiz-adv-x="675" d="M41 0v184l123 21v614l-123 21v184h123v195q0 131 88.5 224t218.5 93h164v-225h-133q-39 0 -65.5 -26.5t-26.5 -65.5v-195h204v-205l-204 -20v-594l122 -21v-184h-491z" />
<glyph unicode="g" horiz-adv-x="1044" d="M82 389v338q0 130 81.5 213.5t205.5 83.5h635v-184l-123 -21v-880q0 -169 -120.5 -289.5t-289.5 -120.5h-266v225h266q69 0 116.5 47t47.5 117v82h-164q-167 0 -278 113.5t-111 275.5zM328 369q0 -62 41 -103t102 -41h164v574h-236q-31 0 -51 -20t-20 -52v-358z" />
<glyph unicode="h" d="M41 0v184l123 21v1126l-123 21v184h369v-512h245q126 0 217 -87t91 -210v-522l102 -21v-184h-471v184l123 21v512q0 38 -22 60t-60 22h-225v-594l122 -21v-184h-491z" />
<glyph unicode="i" horiz-adv-x="573" d="M41 0v184l123 21v614l-123 21v184h369v-819l122 -21v-184h-491zM164 1188v246h246v-246h-246z" />
<glyph unicode="j" horiz-adv-x="532" d="M-61 -246h81q63 0 113.5 48.5t50.5 115.5v901l-123 21v184h369v-1106q0 -99 -52.5 -189.5t-138.5 -145t-178 -54.5h-122v225zM184 1188v246h246v-246h-246z" />
<glyph unicode="k" horiz-adv-x="1064" d="M41 0v184l123 21v1126l-123 21v184h369v-911l208 200l-86 15v184h492v-184l-102 -21l-308 -287l287 -327l123 -21v-184h-246l-368 430v-225l122 -21v-184h-491z" />
<glyph unicode="l" horiz-adv-x="573" d="M41 0v184l123 21v1126l-123 21v184h369v-1331l122 -21v-184h-491z" />
<glyph unicode="m" horiz-adv-x="1679" d="M41 0v184l123 21v614l-123 21v184h307l41 -61q34 25 83.5 43t100.5 18h82q144 0 226 -82q97 82 245 82h82q127 0 217.5 -82.5t90.5 -204.5v-532l122 -21v-184h-491v184l123 21v512q0 33 -22.5 57.5t-59.5 24.5h-62q-69 0 -116 -43t-47 -111v-440l122 -21v-184h-491v184 l123 21v512q0 32 -24 57t-58 25h-62q-70 0 -116.5 -43t-46.5 -111v-440l122 -21v-184h-491z" />
<glyph unicode="n" horiz-adv-x="1126" d="M41 0v184l123 21v614l-123 21v184h307l41 -61q34 25 83.5 43t100.5 18h82q127 0 217.5 -82.5t90.5 -204.5v-532l122 -21v-184h-491v184l123 21v512q0 33 -22.5 57.5t-59.5 24.5h-62q-70 0 -116.5 -43t-46.5 -111v-440l122 -21v-184h-491z" />
<glyph unicode="o" horiz-adv-x="983" d="M82 338v389q0 126 81.5 211.5t205.5 85.5h245q124 0 205.5 -85.5t81.5 -211.5v-389q0 -139 -95.5 -238.5t-232.5 -99.5h-163q-137 0 -232.5 99.5t-95.5 238.5zM328 328q0 -46 28 -74.5t74 -28.5h123q46 0 74 28.5t28 74.5v399q0 31 -20 51.5t-51 20.5h-185 q-31 0 -51 -20.5t-20 -51.5v-399z" />
<glyph unicode="p" horiz-adv-x="1044" d="M41 -287l123 21v1085l-123 21v184h614q135 0 221.5 -90.5t86.5 -216.5v-328q0 -167 -119.5 -278t-290.5 -111h-143v-266l122 -21v-184h-491v184zM410 225h143q75 0 119.5 46t44.5 118v328q0 34 -22.5 58t-59.5 24h-225v-574z" />
<glyph unicode="q" horiz-adv-x="1044" d="M82 389v328q0 127 86 217t221 90h615v-184l-123 -21v-1085l123 -21v-184h-492v184l123 21v266h-143q-171 0 -290.5 111t-119.5 278zM328 389q0 -72 44.5 -118t119.5 -46h143v574h-225q-37 0 -59.5 -24t-22.5 -58v-328z" />
<glyph unicode="r" horiz-adv-x="880" d="M41 0v184l123 21v614l-123 21v184h307l41 -61q33 26 82.5 43.5t101.5 17.5h267v-348h-185l-20 123h-62q-76 0 -119.5 -43.5t-43.5 -120.5v-430l122 -21v-184h-491z" />
<glyph unicode="s" horiz-adv-x="921" d="M61 727q0 128 83.5 212.5t213.5 84.5h441v-348h-185l-20 123h-215q-31 0 -51.5 -20.5t-20.5 -51.5q0 -56 51 -70l267 -73q104 -29 169.5 -105t65.5 -182q0 -122 -84.5 -209.5t-212.5 -87.5h-481v348h178l27 -123h256q31 0 51 20.5t20 51.5q0 26 -16 45t-39 25l-262 65 q-102 25 -169 106t-67 189z" />
<glyph unicode="t" horiz-adv-x="655" d="M20 840v184h123l23 410h223v-410h205v-205l-205 -20v-482q0 -38 27 -65t65 -27h133v-225h-163q-130 0 -219 93t-89 224v502z" />
<glyph unicode="u" d="M20 840v184h492v-184l-123 -21v-512q0 -33 22.5 -57.5t59.5 -24.5h61q70 0 117 43t47 111v440l-123 21v184h492v-184l-123 -21v-614l123 -21v-184h-307l-41 61q-34 -25 -84 -43t-101 -18h-81q-127 0 -217.5 82.5t-90.5 204.5v532z" />
<glyph unicode="v" d="M20 840v184h492v-184l-123 -21l154 -471l153 471l-123 21v184h492v-184l-123 -21l-287 -819h-225l-287 819z" />
<glyph unicode="w" horiz-adv-x="1658" d="M20 840v184h492v-184l-123 -21l154 -471l153 471l-123 21v184h492v-184l-123 -21l154 -471l153 471l-123 21v184h492v-184l-123 -21l-287 -819h-225l-164 471l-164 -471h-225l-287 819z" />
<glyph unicode="x" horiz-adv-x="1044" d="M41 0v184l102 21l246 307l-246 307l-102 21v184h451v-184l-82 -21l112 -141l113 141l-82 21v184h451v-184l-103 -21l-246 -307l246 -307l103 -21v-184h-451v184l82 21l-113 139l-112 -139l82 -21v-184h-451z" />
<glyph unicode="y" d="M20 840v184h492v-184l-123 -21v-522q0 -31 20.5 -51.5t51.5 -20.5h71q70 0 117 43t47 111v440l-123 21v184h492v-184l-123 -21v-901q0 -167 -119.5 -278t-290.5 -111h-266v225h266q69 0 116.5 47t47.5 117v133q-79 -51 -174 -51h-92q-122 0 -204.5 86t-82.5 211v522z" />
<glyph unicode="z" horiz-adv-x="882" d="M0 0l487 799h-262l-20 -123h-185v348h863l-486 -799h238l22 123h183v-348h-840z" />
<glyph unicode="{" horiz-adv-x="614" d="M41 512v225h82q25 0 43 18.5t18 43.5v409q0 138 107.5 233t261.5 95h20v-225h-20q-64 0 -93.5 -30t-29.5 -73v-409q0 -47 -24 -95t-62 -79q38 -31 62 -79.5t24 -94.5v-410q0 -43 29.5 -72.5t93.5 -29.5h20v-226h-20q-154 0 -261.5 95t-107.5 233v410q0 25 -18 43t-43 18 h-82z" />
<glyph unicode="|" horiz-adv-x="450" d="M102 0v1536h246v-1536h-246z" />
<glyph unicode="}" horiz-adv-x="614" d="M41 -61h20q64 0 93.5 29.5t29.5 72.5v410q0 46 24 94.5t62 79.5q-38 31 -62 79t-24 95v409q0 43 -29.5 73t-93.5 30h-20v225h20q154 0 261.5 -95t107.5 -233v-409q0 -25 18.5 -43.5t43.5 -18.5h81v-225h-81q-25 0 -43.5 -18t-18.5 -43v-410q0 -138 -107.5 -233 t-261.5 -95h-20v226z" />
<glyph unicode="~" horiz-adv-x="1064" d="M61 410q0 134 83 230.5t204 96.5q27 0 53.5 -6t43.5 -12t43 -23t35 -23.5t37.5 -30.5t33.5 -28q11 -9 33 -29t32.5 -28.5t27 -16.5t30.5 -8q29 0 45 30t16 73h226q0 -134 -83 -231t-204 -97q-27 0 -53.5 6t-43.5 12t-43 23t-35 23.5t-37.5 30.5t-33.5 28q-11 9 -33 29 t-32.5 28.5t-27 16.5t-30.5 8q-29 0 -45 -29.5t-16 -72.5h-226z" />
<glyph unicode="&#xa1;" horiz-adv-x="471" d="M102 758v266h267v-266h-267zM113 -410v1045h245v-1045h-245z" />
<glyph unicode="&#xa2;" horiz-adv-x="860" d="M82 369v358q0 126 85 211.5t218 85.5l25 184h204v-184h205v-348h-184l-21 123h-215q-31 0 -51 -20t-20 -52v-358q0 -61 44.5 -102.5t108.5 -41.5h338v-225h-182l-23 -184h-204v190q-140 24 -234 124.5t-94 238.5z" />
<glyph unicode="&#xa3;" horiz-adv-x="1064" d="M41 0v225q92 0 158.5 60t66.5 145v184l-225 21v205h225v204q0 169 110 279.5t279 110.5h349v-349h-185l-20 123h-144q-62 0 -102.5 -39.5t-40.5 -103.5v-225h492v-226h-492v-184q0 -48 -15 -104.5t-42 -100.5h344l20 123h185v-348h-963z" />
<glyph unicode="&#xa4;" horiz-adv-x="1089" d="M33 307l110 135q-28 67 -28 142v307q0 75 30 137l-112 139l192 154l115 -139q27 6 61 6h287q32 0 62 -6l114 139l193 -154l-113 -139q31 -71 31 -137v-307q0 -68 -31 -142l113 -135l-193 -153l-96 114q-58 -22 -121 -22h-205q-62 0 -123 22l-94 -114zM360 567 q0 -41 27.5 -68.5t67.5 -27.5h180q40 0 67 27.5t27 68.5v340q0 25 -14.5 40.5t-38.5 15.5h-262q-25 0 -39.5 -15.5t-14.5 -40.5v-340z" />
<glyph unicode="&#xa5;" horiz-adv-x="1290" d="M41 1249v185h491v-185l-102 -20l215 -379l215 379l-102 20v185h491v-185l-123 -20l-155 -266h155v-226h-286l-72 -123h358v-225h-358v-184l123 -21v-184h-492v184l123 21v184h-358v225h358l-71 123h-287v226h155l-155 266z" />
<glyph unicode="&#xa6;" horiz-adv-x="450" d="M102 0v614h246v-614h-246zM102 922v614h246v-614h-246z" />
<glyph unicode="&#xa7;" horiz-adv-x="1003" d="M82 737q0 106 70 193q-70 87 -70 196q0 125 89 216.5t218 91.5h430v-349h-184l-21 123h-215q-31 0 -51 -20t-20 -51q0 -67 61 -82l287 -76q107 -28 176.5 -107t69.5 -196q0 -120 -84 -211q43 -65 43 -168q0 -122 -91.5 -209.5t-216.5 -87.5h-471v348h185l20 -123h246 q32 0 57 20.5t25 51.5q0 27 -17 46.5t-45 27.5l-245 63q-108 28 -177 107t-69 196zM328 737q0 -58 61 -73l225 -60q3 1 7 2t14.5 7t19 13t15 20.5t6.5 29.5q0 27 -16 47t-46 27l-225 59q-2 -1 -6.5 -2t-15 -7t-18.5 -13t-14.5 -20.5t-6.5 -29.5z" />
<glyph unicode="&#xa8;" horiz-adv-x="778" d="M82 1147v246h246v-246h-246zM451 1147v246h245v-246h-245z" />
<glyph unicode="&#xa9;" horiz-adv-x="1515" d="M82 532v431q0 127 58.5 235t162.5 172t229 64h451q125 0 229.5 -64t163 -172t58.5 -235v-431q0 -144 -71 -266.5t-194 -194t-268 -71.5h-287q-145 0 -267.5 71.5t-193.5 194t-71 266.5zM328 532q0 -130 89 -218.5t218 -88.5h246q129 0 218 88.5t89 218.5v431 q0 112 -64.5 178.5t-160.5 66.5h-410q-96 0 -160.5 -66.5t-64.5 -178.5v-431zM410 594v287q0 101 72 173t173 72h369v-317h-154l-20 113h-174q-20 0 -35.5 -15t-15.5 -37v-264q0 -40 26 -67t66 -27h307v-205h-317q-124 0 -210.5 83t-86.5 204z" />
<glyph unicode="&#xaa;" horiz-adv-x="696" d="M61 983q0 66 45 116.5t119 67.5l185 41q0 17 -12 29t-29 12h-113l-10 -61h-144v246h277q86 0 150.5 -60.5t64.5 -144.5v-297l61 -10v-144h-389q-92 0 -148.5 57.5t-56.5 147.5zM246 983q0 -8 6.5 -14t13.5 -6h144v75l-144 -30q-20 -3 -20 -25z" />
<glyph unicode="&#xab;" horiz-adv-x="1064" d="M41 512l287 410h266l-287 -410l287 -410h-266zM471 512l287 410h266l-287 -410l287 -410h-266z" />
<glyph unicode="&#xac;" horiz-adv-x="1146" d="M82 553v225h983v-471h-246v246h-737z" />
<glyph unicode="&#xad;" horiz-adv-x="675" d="M82 410v225h512v-225h-512z" />
<glyph unicode="&#xae;" horiz-adv-x="1597" d="M82 532v431q0 127 58.5 235t162.5 172t229 64h533q125 0 229.5 -64t163 -172t58.5 -235v-431q0 -144 -71 -266.5t-194 -194t-268 -71.5h-369q-145 0 -267.5 71.5t-193.5 194t-71 266.5zM328 532q0 -130 89 -218.5t218 -88.5h328q129 0 218 88.5t89 218.5v431 q0 112 -65 178.5t-161 66.5h-491q-96 0 -160.5 -66.5t-64.5 -178.5v-431zM430 307v154l82 10v492l-82 12v151h451q102 0 173.5 -71.5t71.5 -173.5q0 -68 -34.5 -124t-94.5 -89q32 -29 47 -74l41 -123l82 -10v-154h-256l-71 240q-14 48 -34.5 65t-47.5 17h-31v-158l82 -10 v-154h-379zM727 823h133q20 0 35.5 15t15.5 39t-15.5 39.5t-35.5 15.5h-133v-109z" />
<glyph unicode="&#xaf;" horiz-adv-x="675" d="M82 1147v205h512v-205h-512z" />
<glyph unicode="&#xb0;" horiz-adv-x="675" d="M61 1157q0 115 80.5 196t196.5 81q115 0 195.5 -80.5t80.5 -196.5q0 -115 -80 -195.5t-196 -80.5t-196.5 80.5t-80.5 195.5zM266 1157q0 -29 21.5 -50.5t50.5 -21.5t50.5 21.5t21.5 50.5t-21.5 50.5t-50.5 21.5t-50.5 -21.5t-21.5 -50.5z" />
<glyph unicode="&#xb1;" horiz-adv-x="1146" d="M82 0v225h983v-225h-983zM82 614v226h369v307h245v-307h369v-226h-369v-307h-245v307h-369z" />
<glyph unicode="&#xb2;" horiz-adv-x="655" d="M61 717v184q0 82 52 146t125 79l110 25q18 3 29.5 14.5t11.5 28.5v14q0 17 -12 29t-29 12h-112l-11 -102h-143v287h293q90 0 154.5 -65t64.5 -155v-26q0 -76 -52.5 -134t-131.5 -77l-103 -25q-20 -4 -30.5 -19t-10.5 -32h307v-184h-512z" />
<glyph unicode="&#xb3;" horiz-adv-x="604" d="M41 717v184h260q15 0 26 10t11 25t-11 26t-26 11h-178v184h153q17 0 29 12t12 29v10q0 17 -12 29t-29 12h-83l-9 -61h-143v246h256q96 0 160.5 -69t64.5 -167q0 -69 -41 -123q30 -23 46 -61.5t16 -81.5q0 -89 -63 -152t-152 -63h-287z" />
<glyph unicode="&#xb4;" horiz-adv-x="696" d="M82 1147l266 287h266l-286 -287h-246z" />
<glyph unicode="&#xb6;" horiz-adv-x="1146" d="M61 1137q0 123 87 210t210 87h686v-1434h-245v1208h-123v-1208h-246v840h-72q-123 0 -210 87t-87 210zM287 1137q0 -29 21 -50.5t50 -21.5h72v143h-72q-29 0 -50 -21t-21 -50z" />
<glyph unicode="&#xb7;" horiz-adv-x="430" d="M82 594v266h266v-266h-266z" />
<glyph unicode="&#xb8;" horiz-adv-x="593" d="M82 -225q133 -62 184 -62q19 0 30 12.5t11 28.5t-11 28.5t-30 12.5h-131l90 225h205l-41 -81q57 -17 90 -70.5t33 -124.5q0 -88 -68.5 -151.5t-156.5 -63.5q-53 0 -104 10.5t-76 21.5l-25 11v203z" />
<glyph unicode="&#xb9;" horiz-adv-x="512" d="M41 1270v143l328 21v-564l102 -10v-143h-410v143l103 10v410z" />
<glyph unicode="&#xba;" horiz-adv-x="634" d="M61 1014v215q0 88 57.5 146.5t147.5 58.5h96q89 0 150 -58.5t61 -146.5v-215q0 -98 -68 -167t-167 -69h-51q-98 0 -162 68.5t-64 167.5zM256 993q0 -12 9.5 -21t21.5 -9h61q12 0 21.5 9t9.5 21v230q0 26 -27 26h-69q-27 0 -27 -26v-230z" />
<glyph unicode="&#xbb;" horiz-adv-x="1064" d="M41 102l287 410l-287 410h266l287 -410l-287 -410h-266zM471 102l287 410l-287 410h266l287 -410l-287 -410h-266z" />
<glyph unicode="&#xbc;" horiz-adv-x="1331" d="M41 1270v143l328 21v-564l102 -10v-143h-410v143l103 10v410zM143 0l768 1434h246l-768 -1434h-246zM606 205l285 532h225l-194 -348h61v103h205v-103h102v-184h-102v-51l102 -11v-143h-409v143l102 11v51h-377z" />
<glyph unicode="&#xbd;" horiz-adv-x="1392" d="M41 1270v143l328 21v-564l102 -10v-143h-410v143l103 10v410zM143 0l768 1434h246l-768 -1434h-246zM799 0v184q0 83 51.5 147t124.5 79l110 24q18 3 29.5 14.5t11.5 28.5v15q0 17 -12 28.5t-29 11.5h-112l-10 -102h-144v287h293q90 0 154.5 -64.5t64.5 -154.5v-27 q0 -76 -52.5 -134t-131.5 -77l-103 -24q-20 -4 -30 -19.5t-10 -32.5h307v-184h-512z" />
<glyph unicode="&#xbe;" horiz-adv-x="1331" d="M41 717v184h260q15 0 26 10t11 25t-11 26t-26 11h-178v184h153q17 0 29 12t12 29v10q0 17 -12 29t-29 12h-83l-9 -61h-143v246h256q96 0 160.5 -69t64.5 -167q0 -69 -41 -123q30 -23 46 -61.5t16 -81.5q0 -89 -63 -152t-152 -63h-287zM143 0l768 1434h246l-768 -1434 h-246zM606 205l285 532h225l-194 -348h61v103h205v-103h102v-184h-102v-51l102 -11v-143h-409v143l102 11v51h-377z" />
<glyph unicode="&#xbf;" horiz-adv-x="962" d="M61 -10q0 135 73.5 244t193.5 135l225 47q37 7 59.5 36.5t22.5 69.5v113h246v-113q0 -117 -67.5 -204t-178.5 -113l-225 -53q-43 -11 -73 -48t-30 -84v-61q0 -61 42 -102t102 -41h266l20 123h185v-349h-471q-163 0 -276.5 113t-113.5 287zM625 758v266h266v-266h-266z " />
<glyph unicode="&#xc0;" horiz-adv-x="1372" d="M41 0v184l123 21l328 1024l-123 20v185h450l389 -1229l123 -21v-184h-491v184l123 21l-72 225h-412l-69 -225l122 -21v-184h-491zM266 1843h266l267 -287h-246zM551 655h270l-135 430z" />
<glyph unicode="&#xc1;" horiz-adv-x="1372" d="M41 0v184l123 21l328 1024l-123 20v185h450l389 -1229l123 -21v-184h-491v184l123 21l-72 225h-412l-69 -225l122 -21v-184h-491zM532 1556l267 287h266l-287 -287h-246zM551 655h270l-135 430z" />
<glyph unicode="&#xc2;" horiz-adv-x="1372" d="M41 0v184l123 21l328 1024l-123 20v185h450l389 -1229l123 -21v-184h-491v184l123 21l-72 225h-412l-69 -225l122 -21v-184h-491zM307 1556l369 369l368 -369h-245l-123 103l-123 -103h-246zM551 655h270l-135 430z" />
<glyph unicode="&#xc3;" horiz-adv-x="1372" d="M41 0v184l123 21l328 1024l-123 20v185h450l389 -1229l123 -21v-184h-491v184l123 21l-72 225h-412l-69 -225l122 -21v-184h-491zM348 1597q0 127 62 197t163 70q49 0 85.5 -22t72.5 -60q23 -23 37 -32t31 -9q16 0 28.5 17t12.5 44h184q0 -127 -62 -196.5t-163 -69.5 q-49 0 -85.5 22t-72.5 60q-23 23 -37 32t-31 9q-16 0 -28.5 -17.5t-12.5 -44.5h-184zM551 655h270l-135 430z" />
<glyph unicode="&#xc4;" horiz-adv-x="1372" d="M41 0v184l123 21l328 1024l-123 20v185h450l389 -1229l123 -21v-184h-491v184l123 21l-72 225h-412l-69 -225l122 -21v-184h-491zM369 1556v246h245v-246h-245zM551 655h270l-135 430zM737 1556v246h246v-246h-246z" />
<glyph unicode="&#xc5;" horiz-adv-x="1372" d="M41 0v184l123 21l328 1024l-123 20v185h450l389 -1229l123 -21v-184h-491v184l123 21l-72 225h-412l-69 -225l122 -21v-184h-491zM430 1761q0 101 72.5 173.5t173.5 72.5t173.5 -72.5t72.5 -173.5t-72.5 -173t-173.5 -72t-173.5 72t-72.5 173zM551 655h270l-135 430z M614 1761q0 -26 18 -43.5t44 -17.5t43.5 17.5t17.5 43.5t-17.5 44t-43.5 18t-44 -18t-18 -44z" />
<glyph unicode="&#xc6;" horiz-adv-x="1679" d="M20 0v184l123 21l389 1024l-122 20v185h1228v-349h-184l-20 123h-512l71 -327h359l20 82h184v-431h-184l-20 123h-308l97 -430h293l20 144h184v-369h-839v184l102 21l-47 225h-381l-84 -225l123 -21v-184h-492zM557 655h250l-90 430z" />
<glyph unicode="&#xc7;" horiz-adv-x="1024" d="M82 518v537q0 157 111.5 268t269.5 111h520v-349h-184l-21 123h-295q-64 0 -109.5 -44.5t-45.5 -108.5v-543q0 -118 87.5 -202.5t207.5 -84.5h360v-225h-235l-31 -61q57 -17 90 -70.5t33 -124.5q0 -88 -69 -151.5t-157 -63.5q-53 0 -104 10.5t-76 21.5l-24 11v203 q133 -62 184 -62q19 0 30 12.5t11 28.5t-11 28.5t-30 12.5h-131l82 207q-197 22 -330 169t-133 347z" />
<glyph unicode="&#xc8;" horiz-adv-x="1085" d="M41 0v184l123 21v1024l-123 20v185h1003v-349h-184l-20 123h-430v-327h348l20 82h185v-431h-185l-20 123h-348v-430h430l20 144h184v-369h-1003zM225 1843h267l266 -287h-246z" />
<glyph unicode="&#xc9;" horiz-adv-x="1085" d="M41 0v184l123 21v1024l-123 20v185h1003v-349h-184l-20 123h-430v-327h348l20 82h185v-431h-185l-20 123h-348v-430h430l20 144h184v-369h-1003zM389 1556l266 287h267l-287 -287h-246z" />
<glyph unicode="&#xca;" horiz-adv-x="1085" d="M41 0v184l123 21v1024l-123 20v185h1003v-349h-184l-20 123h-430v-327h348l20 82h185v-431h-185l-20 123h-348v-430h430l20 144h184v-369h-1003zM184 1556l369 369l369 -369h-246l-123 103l-123 -103h-246z" />
<glyph unicode="&#xcb;" horiz-adv-x="1085" d="M41 0v184l123 21v1024l-123 20v185h1003v-349h-184l-20 123h-430v-327h348l20 82h185v-431h-185l-20 123h-348v-430h430l20 144h184v-369h-1003zM256 1556v246h246v-246h-246zM625 1556v246h245v-246h-245z" />
<glyph unicode="&#xcc;" horiz-adv-x="532" d="M-82 1843h266l267 -287h-246zM0 0v184l123 21v1024l-123 20v185h492v-185l-123 -20v-1024l123 -21v-184h-492z" />
<glyph unicode="&#xcd;" horiz-adv-x="552" d="M41 0v184l123 21v1024l-123 20v185h491v-185l-122 -20v-1024l122 -21v-184h-491zM102 1556l267 287h266l-287 -287h-246z" />
<glyph unicode="&#xce;" horiz-adv-x="593" d="M-72 1556l369 369l369 -369h-246l-123 103l-123 -103h-246zM51 0v184l123 21v1024l-123 20v185h492v-185l-123 -20v-1024l123 -21v-184h-492z" />
<glyph unicode="&#xcf;" horiz-adv-x="573" d="M-20 1556v246h245v-246h-245zM41 0v184l123 21v1024l-123 20v185h491v-185l-122 -20v-1024l122 -21v-184h-491zM348 1556v246h246v-246h-246z" />
<glyph unicode="&#xd0;" horiz-adv-x="1269" d="M41 635v205h184v389l-123 20v185h697q159 0 274 -111.5t115 -267.5v-543q0 -106 -39.5 -201t-107.5 -163t-163 -108t-202 -40h-574v184l123 21v409zM471 225h184q117 0 202 84.5t85 202.5v543q0 63 -50 108t-114 45h-307v-368h184v-205l-184 -21v-389z" />
<glyph unicode="&#xd1;" horiz-adv-x="1351" d="M41 0v184l123 21v1024l-123 20v185h369l532 -963v758l-123 20v185h492v-185l-123 -20v-1229h-246l-532 963v-758l122 -21v-184h-491zM338 1597q0 127 62 197t163 70q49 0 85.5 -22t72.5 -60q23 -23 36.5 -32t30.5 -9q16 0 28.5 17t12.5 44h185q0 -127 -62.5 -196.5 t-163.5 -69.5q-49 0 -84.5 22t-72.5 60q-23 23 -37 32t-31 9q-16 0 -28.5 -17.5t-12.5 -44.5h-184z" />
<glyph unicode="&#xd2;" horiz-adv-x="1187" d="M82 438v617q0 157 112 268t269 111h260q157 0 270 -111.5t113 -267.5v-617q0 -182 -130 -310t-314 -128h-138q-184 0 -313 128t-129 310zM246 1843h266l266 -287h-246zM328 438q0 -88 64 -150.5t151 -62.5h100q88 0 152.5 62t64.5 151v617q0 64 -46.5 108.5t-111.5 44.5 h-219q-65 0 -110 -44.5t-45 -108.5v-617z" />
<glyph unicode="&#xd3;" horiz-adv-x="1187" d="M82 438v617q0 157 112 268t269 111h260q157 0 270 -111.5t113 -267.5v-617q0 -182 -130 -310t-314 -128h-138q-184 0 -313 128t-129 310zM328 438q0 -88 64 -150.5t151 -62.5h100q88 0 152.5 62t64.5 151v617q0 64 -46.5 108.5t-111.5 44.5h-219q-65 0 -110 -44.5 t-45 -108.5v-617zM430 1556l266 287h267l-287 -287h-246z" />
<glyph unicode="&#xd4;" horiz-adv-x="1187" d="M82 438v617q0 157 112 268t269 111h260q157 0 270 -111.5t113 -267.5v-617q0 -182 -130 -310t-314 -128h-138q-184 0 -313 128t-129 310zM225 1556l369 369l369 -369h-246l-123 103l-123 -103h-246zM328 438q0 -88 64 -150.5t151 -62.5h100q88 0 152.5 62t64.5 151v617 q0 64 -46.5 108.5t-111.5 44.5h-219q-65 0 -110 -44.5t-45 -108.5v-617z" />
<glyph unicode="&#xd5;" horiz-adv-x="1187" d="M82 438v617q0 157 112 268t269 111h260q157 0 270 -111.5t113 -267.5v-617q0 -182 -130 -310t-314 -128h-138q-184 0 -313 128t-129 310zM256 1597q0 127 62 197t163 70q49 0 85.5 -22t72.5 -60q23 -23 37 -32t31 -9q16 0 28.5 17t12.5 44h184q0 -127 -62 -196.5 t-163 -69.5q-49 0 -85.5 22t-72.5 60q-23 23 -37 32t-31 9q-16 0 -28.5 -17.5t-12.5 -44.5h-184zM328 438q0 -88 64 -150.5t151 -62.5h100q88 0 152.5 62t64.5 151v617q0 64 -46.5 108.5t-111.5 44.5h-219q-65 0 -110 -44.5t-45 -108.5v-617z" />
<glyph unicode="&#xd6;" horiz-adv-x="1187" d="M82 438v617q0 157 112 268t269 111h260q157 0 270 -111.5t113 -267.5v-617q0 -182 -130 -310t-314 -128h-138q-184 0 -313 128t-129 310zM287 1556v246h245v-246h-245zM328 438q0 -88 64 -150.5t151 -62.5h100q88 0 152.5 62t64.5 151v617q0 64 -46.5 108.5t-111.5 44.5 h-219q-65 0 -110 -44.5t-45 -108.5v-617zM655 1556v246h246v-246h-246z" />
<glyph unicode="&#xd7;" horiz-adv-x="1146" d="M61 174l338 338l-338 338l175 174l337 -338l338 338l174 -174l-337 -338l337 -338l-174 -174l-338 338l-337 -338z" />
<glyph unicode="&#xd8;" horiz-adv-x="1187" d="M82 -123l121 258q-121 127 -121 303v617q0 157 112 268t269 111h260q35 0 84 -11l53 113h246l-105 -223q105 -108 105 -258v-617q0 -182 -130 -310t-314 -128h-138q-71 0 -123 16l-63 -139h-256zM328 438q0 -22 2 -32l377 802h-224q-65 0 -110 -44.5t-45 -108.5v-617z M500 229q14 -4 43 -4h100q88 0 152.5 62t64.5 151v568z" />
<glyph unicode="&#xd9;" horiz-adv-x="1331" d="M41 1249v185h491v-185l-122 -20v-770q0 -99 64.5 -166.5t160.5 -67.5h51q97 0 166.5 68t69.5 166v770l-123 20v185h491v-185l-123 -20v-750q0 -198 -141 -338.5t-340 -140.5h-51q-197 0 -334 140t-137 339v750zM307 1843h266l267 -287h-246z" />
<glyph unicode="&#xda;" horiz-adv-x="1331" d="M41 1249v185h491v-185l-122 -20v-770q0 -99 64.5 -166.5t160.5 -67.5h51q97 0 166.5 68t69.5 166v770l-123 20v185h491v-185l-123 -20v-750q0 -198 -141 -338.5t-340 -140.5h-51q-197 0 -334 140t-137 339v750zM492 1556l266 287h266l-287 -287h-245z" />
<glyph unicode="&#xdb;" horiz-adv-x="1331" d="M41 1249v185h491v-185l-122 -20v-770q0 -99 64.5 -166.5t160.5 -67.5h51q97 0 166.5 68t69.5 166v770l-123 20v185h491v-185l-123 -20v-750q0 -198 -141 -338.5t-340 -140.5h-51q-197 0 -334 140t-137 339v750zM297 1556l369 369l368 -369h-246l-122 103l-123 -103h-246z " />
<glyph unicode="&#xdc;" horiz-adv-x="1331" d="M41 1249v185h491v-185l-122 -20v-770q0 -99 64.5 -166.5t160.5 -67.5h51q97 0 166.5 68t69.5 166v770l-123 20v185h491v-185l-123 -20v-750q0 -198 -141 -338.5t-340 -140.5h-51q-197 0 -334 140t-137 339v750zM358 1556v246h246v-246h-246zM727 1556v246h246v-246h-246z " />
<glyph unicode="&#xdd;" horiz-adv-x="1290" d="M41 1249v185h491v-185l-102 -20l215 -379l215 379l-102 20v185h491v-185l-123 -20l-358 -615v-409l123 -21v-184h-492v184l123 21v409l-358 615zM512 1556l266 287h266l-286 -287h-246z" />
<glyph unicode="&#xde;" horiz-adv-x="1146" d="M41 0v184l123 21v1024l-123 20v185h491v-185l-122 -20v-103h266q168 0 288.5 -117.5t120.5 -281.5v-20q0 -164 -121 -282t-288 -118h-266v-102l122 -21v-184h-491zM410 532h266q66 0 115 44.5t49 109.5v62q0 65 -49 109t-115 44h-266v-369z" />
<glyph unicode="&#xdf;" horiz-adv-x="1146" d="M41 0v184l123 21v614l-123 21v184h123v205q0 121 87 214t220 93h184q133 0 220.5 -93t87.5 -214v-430h-164q-27 0 -44.5 -17.5t-17.5 -44.5q0 -48 103 -82q111 -38 178 -123t67 -204q0 -138 -94 -233t-233 -95h-164v225h143q46 0 74.5 28.5t28.5 74.5t-27.5 73.5 t-95.5 49.5q-101 32 -163 107t-62 179q0 108 59.5 184t165.5 99v209q0 34 -23.5 58t-58.5 24h-143q-35 0 -58.5 -24t-23.5 -58v-1024l102 -21v-184h-471z" />
<glyph unicode="&#xe0;" horiz-adv-x="1024" d="M61 297q0 100 67 180t169 107l317 80v53q0 33 -20.5 57.5t-50.5 24.5h-195l-20 -123h-185v348h420q129 0 213 -85.5t84 -211.5v-522l123 -21v-184h-625q-142 0 -219.5 80t-77.5 217zM154 1434h266l266 -287h-246zM307 307q0 -33 22.5 -57.5t59.5 -24.5h225v215l-245 -57 q-27 -6 -44.5 -26t-17.5 -50z" />
<glyph unicode="&#xe1;" horiz-adv-x="1024" d="M61 297q0 100 67 180t169 107l317 80v53q0 33 -20.5 57.5t-50.5 24.5h-195l-20 -123h-185v348h420q129 0 213 -85.5t84 -211.5v-522l123 -21v-184h-625q-142 0 -219.5 80t-77.5 217zM307 307q0 -33 22.5 -57.5t59.5 -24.5h225v215l-245 -57q-27 -6 -44.5 -26t-17.5 -50z M328 1147l266 287h266l-287 -287h-245z" />
<glyph unicode="&#xe2;" horiz-adv-x="1024" d="M61 297q0 100 67 180t169 107l317 80v53q0 33 -20.5 57.5t-50.5 24.5h-195l-20 -123h-185v348h420q129 0 213 -85.5t84 -211.5v-522l123 -21v-184h-625q-142 0 -219.5 80t-77.5 217zM123 1147l369 369l368 -369h-246l-122 102l-123 -102h-246zM307 307q0 -33 22.5 -57.5 t59.5 -24.5h225v215l-245 -57q-27 -6 -44.5 -26t-17.5 -50z" />
<glyph unicode="&#xe3;" horiz-adv-x="1024" d="M61 297q0 100 67 180t169 107l317 80v53q0 33 -20.5 57.5t-50.5 24.5h-195l-20 -123h-185v348h420q129 0 213 -85.5t84 -211.5v-522l123 -21v-184h-625q-142 0 -219.5 80t-77.5 217zM164 1188q0 127 62 196.5t163 69.5q49 0 85.5 -22t72.5 -60q23 -23 36.5 -32t30.5 -9 q16 0 28.5 17.5t12.5 44.5h185q0 -127 -62.5 -197t-163.5 -70q-49 0 -84.5 22t-72.5 60q-23 23 -37 32t-31 9q-16 0 -28.5 -17t-12.5 -44h-184zM307 307q0 -33 22.5 -57.5t59.5 -24.5h225v215l-245 -57q-27 -6 -44.5 -26t-17.5 -50z" />
<glyph unicode="&#xe4;" horiz-adv-x="1024" d="M61 297q0 100 67 180t169 107l317 80v53q0 33 -20.5 57.5t-50.5 24.5h-195l-20 -123h-185v348h420q129 0 213 -85.5t84 -211.5v-522l123 -21v-184h-625q-142 0 -219.5 80t-77.5 217zM184 1147v246h246v-246h-246zM307 307q0 -33 22.5 -57.5t59.5 -24.5h225v215l-245 -57 q-27 -6 -44.5 -26t-17.5 -50zM553 1147v246h246v-246h-246z" />
<glyph unicode="&#xe5;" horiz-adv-x="1024" d="M61 297q0 100 67 180t169 107l317 80v53q0 33 -20.5 57.5t-50.5 24.5h-195l-20 -123h-185v348h420q129 0 213 -85.5t84 -211.5v-522l123 -21v-184h-625q-142 0 -219.5 80t-77.5 217zM236 1352q0 101 72 173t173 72t173.5 -72t72.5 -173t-72.5 -173.5t-173.5 -72.5 t-173 72.5t-72 173.5zM307 307q0 -33 22.5 -57.5t59.5 -24.5h225v215l-245 -57q-27 -6 -44.5 -26t-17.5 -50zM420 1352q0 -26 17.5 -44t43.5 -18t44 18t18 44t-18 43.5t-44 17.5t-43.5 -17.5t-17.5 -43.5z" />
<glyph unicode="&#xe6;" horiz-adv-x="1474" d="M61 297q0 100 67 180t169 107l317 80v53q0 33 -20.5 57.5t-50.5 24.5h-195l-20 -123h-185v348h420q99 0 172 -51q73 51 166 51h205q135 0 221 -83t86 -214q0 -121 -73.5 -196t-182.5 -101l-297 -72q6 -63 45 -98t99 -35h368v-225h-368q-101 0 -191 49l-14 -49h-441 q-142 0 -219.5 80t-77.5 217zM307 307q0 -33 22.5 -57.5t59.5 -24.5h225v215l-245 -57q-27 -6 -44.5 -26t-17.5 -50zM860 594l246 61q61 15 61 72q0 33 -20 52.5t-51 19.5h-164q-31 0 -51.5 -20.5t-20.5 -51.5v-133z" />
<glyph unicode="&#xe7;" horiz-adv-x="860" d="M82 369v358q0 125 85.5 211t211.5 86h440v-348h-184l-21 123h-215q-31 0 -51 -20t-20 -52v-358q0 -61 44.5 -102.5t108.5 -41.5h338v-225h-194l-31 -61q57 -17 90 -70.5t33 -124.5q0 -88 -68.5 -151.5t-156.5 -63.5q-53 0 -104 10.5t-76 21.5l-25 11v203q133 -62 184 -62 q19 0 30 12.5t11 28.5t-11 28.5t-30 12.5h-131l82 209q-143 19 -241.5 120.5t-98.5 244.5z" />
<glyph unicode="&#xe8;" horiz-adv-x="942" d="M82 389v338q0 125 82.5 211t204.5 86h204q135 0 221.5 -83.5t86.5 -213.5q0 -121 -73.5 -196t-182.5 -101l-297 -72q6 -63 44.5 -98t98.5 -35h369v-225h-369q-160 0 -274.5 114.5t-114.5 274.5zM143 1434h267l266 -287h-246zM328 594l245 61q62 15 62 72q0 33 -20.5 52.5 t-51.5 19.5h-164q-31 0 -51 -20.5t-20 -51.5v-133z" />
<glyph unicode="&#xe9;" horiz-adv-x="942" d="M82 389v338q0 125 82.5 211t204.5 86h204q135 0 221.5 -83.5t86.5 -213.5q0 -121 -73.5 -196t-182.5 -101l-297 -72q6 -63 44.5 -98t98.5 -35h369v-225h-369q-160 0 -274.5 114.5t-114.5 274.5zM307 1147l266 287h267l-287 -287h-246zM328 594l245 61q62 15 62 72 q0 33 -20.5 52.5t-51.5 19.5h-164q-31 0 -51 -20.5t-20 -51.5v-133z" />
<glyph unicode="&#xea;" horiz-adv-x="942" d="M82 389v338q0 125 82.5 211t204.5 86h204q135 0 221.5 -83.5t86.5 -213.5q0 -121 -73.5 -196t-182.5 -101l-297 -72q6 -63 44.5 -98t98.5 -35h369v-225h-369q-160 0 -274.5 114.5t-114.5 274.5zM102 1147l369 369l369 -369h-246l-123 102l-123 -102h-246zM328 594l245 61 q62 15 62 72q0 33 -20.5 52.5t-51.5 19.5h-164q-31 0 -51 -20.5t-20 -51.5v-133z" />
<glyph unicode="&#xeb;" horiz-adv-x="942" d="M82 389v338q0 125 82.5 211t204.5 86h204q135 0 221.5 -83.5t86.5 -213.5q0 -121 -73.5 -196t-182.5 -101l-297 -72q6 -63 44.5 -98t98.5 -35h369v-225h-369q-160 0 -274.5 114.5t-114.5 274.5zM164 1147v246h246v-246h-246zM328 594l245 61q62 15 62 72q0 33 -20.5 52.5 t-51.5 19.5h-164q-31 0 -51 -20.5t-20 -51.5v-133zM532 1147v246h246v-246h-246z" />
<glyph unicode="&#xec;" horiz-adv-x="532" d="M0 0v184l123 21v614l-123 21v184h369v-819l123 -21v-184h-492zM0 1331v103h164l266 -287h-246z" />
<glyph unicode="&#xed;" horiz-adv-x="532" d="M41 0v184l123 21v614l-123 21v184h369v-819l122 -21v-184h-491zM102 1147l267 287h163v-103l-184 -184h-246z" />
<glyph unicode="&#xee;" horiz-adv-x="573" d="M41 0v184l123 21v614l-123 21v184h369v-819l122 -21v-184h-491zM41 1147v123l246 246l245 -246v-123h-122l-123 102l-123 -102h-123z" />
<glyph unicode="&#xef;" horiz-adv-x="552" d="M0 1147v246h225v-246h-225zM20 0v184l123 21v614l-123 21v184h369v-819l123 -21v-184h-492zM307 1147v246h225v-246h-225z" />
<glyph unicode="&#xf0;" horiz-adv-x="1003" d="M82 389v240q0 138 98.5 236t237.5 98h155q15 0 31 -3t41.5 -10t30.5 -8v123q0 11 -4 35l-201 -96v225l92 43q-51 39 -112 39h-82l-21 -123h-184v348h287q102 0 191.5 -40.5t154.5 -111.5l186 91v-226l-84 -41q23 -74 23 -143v-676q0 -160 -114.5 -274.5t-275.5 -114.5 h-61q-160 0 -274.5 114.5t-114.5 274.5zM328 369q0 -61 41.5 -102.5t101.5 -41.5h61q60 0 102 41.5t42 102.5v274q0 41 -27 67.5t-67 26.5h-160q-39 0 -66.5 -26.5t-27.5 -67.5v-274z" />
<glyph unicode="&#xf1;" horiz-adv-x="1126" d="M41 0v184l123 21v614l-123 21v184h307l41 -61q34 25 83.5 43t100.5 18h82q127 0 217.5 -82.5t90.5 -204.5v-532l122 -21v-184h-491v184l123 21v512q0 33 -22.5 57.5t-59.5 24.5h-62q-70 0 -116.5 -43t-46.5 -111v-440l122 -21v-184h-491zM225 1188q0 127 62.5 196.5 t163.5 69.5q49 0 84.5 -22t72.5 -60q23 -23 37 -32t31 -9q16 0 28.5 17.5t12.5 44.5h184q0 -127 -62 -197t-163 -70q-49 0 -85.5 22t-72.5 60q-23 23 -36.5 32t-30.5 9q-16 0 -28.5 -17t-12.5 -44h-185z" />
<glyph unicode="&#xf2;" horiz-adv-x="983" d="M82 338v389q0 126 81.5 211.5t205.5 85.5h245q124 0 205.5 -85.5t81.5 -211.5v-389q0 -139 -95.5 -238.5t-232.5 -99.5h-163q-137 0 -232.5 99.5t-95.5 238.5zM123 1434h266l266 -287h-245zM328 328q0 -46 28 -74.5t74 -28.5h123q46 0 74 28.5t28 74.5v399q0 31 -20 51.5 t-51 20.5h-185q-31 0 -51 -20.5t-20 -51.5v-399z" />
<glyph unicode="&#xf3;" horiz-adv-x="983" d="M82 338v389q0 126 81.5 211.5t205.5 85.5h245q124 0 205.5 -85.5t81.5 -211.5v-389q0 -139 -95.5 -238.5t-232.5 -99.5h-163q-137 0 -232.5 99.5t-95.5 238.5zM328 328q0 -46 28 -74.5t74 -28.5h123q46 0 74 28.5t28 74.5v399q0 31 -20 51.5t-51 20.5h-185 q-31 0 -51 -20.5t-20 -51.5v-399zM328 1147l266 287h266l-287 -287h-245z" />
<glyph unicode="&#xf4;" horiz-adv-x="983" d="M82 338v389q0 126 81.5 211.5t205.5 85.5h245q124 0 205.5 -85.5t81.5 -211.5v-389q0 -139 -95.5 -238.5t-232.5 -99.5h-163q-137 0 -232.5 99.5t-95.5 238.5zM123 1147l369 369l368 -369h-246l-122 102l-123 -102h-246zM328 328q0 -46 28 -74.5t74 -28.5h123 q46 0 74 28.5t28 74.5v399q0 31 -20 51.5t-51 20.5h-185q-31 0 -51 -20.5t-20 -51.5v-399z" />
<glyph unicode="&#xf5;" horiz-adv-x="983" d="M82 338v389q0 126 81.5 211.5t205.5 85.5h245q124 0 205.5 -85.5t81.5 -211.5v-389q0 -139 -95.5 -238.5t-232.5 -99.5h-163q-137 0 -232.5 99.5t-95.5 238.5zM154 1188q0 127 62 196.5t163 69.5q49 0 85.5 -22t72.5 -60q23 -23 36.5 -32t30.5 -9q16 0 28.5 17.5 t12.5 44.5h184q0 -127 -62 -197t-163 -70q-49 0 -85.5 22t-72.5 60q-23 23 -36.5 32t-30.5 9q-16 0 -28.5 -17t-12.5 -44h-184zM328 328q0 -46 28 -74.5t74 -28.5h123q46 0 74 28.5t28 74.5v399q0 31 -20 51.5t-51 20.5h-185q-31 0 -51 -20.5t-20 -51.5v-399z" />
<glyph unicode="&#xf6;" horiz-adv-x="983" d="M82 338v389q0 126 81.5 211.5t205.5 85.5h245q124 0 205.5 -85.5t81.5 -211.5v-389q0 -139 -95.5 -238.5t-232.5 -99.5h-163q-137 0 -232.5 99.5t-95.5 238.5zM184 1147v246h246v-246h-246zM328 328q0 -46 28 -74.5t74 -28.5h123q46 0 74 28.5t28 74.5v399q0 31 -20 51.5 t-51 20.5h-185q-31 0 -51 -20.5t-20 -51.5v-399zM553 1147v246h246v-246h-246z" />
<glyph unicode="&#xf7;" horiz-adv-x="1126" d="M82 410v225h962v-225h-962zM430 41v266h266v-266h-266zM430 737v267h266v-267h-266z" />
<glyph unicode="&#xf8;" horiz-adv-x="1003" d="M61 -123l121 238q-80 96 -80 223v389q0 126 81.5 211.5t205.5 85.5h254l53 102h246l-98 -192q78 -84 78 -207v-389q0 -139 -95.5 -238.5t-232.5 -99.5h-164q-23 0 -59 4l-64 -127h-246zM348 440l182 359h-110q-31 0 -51.5 -20.5t-20.5 -51.5v-287zM483 225h90 q46 0 74.5 28.5t28.5 74.5v274z" />
<glyph unicode="&#xf9;" d="M20 840v184h492v-184l-123 -21v-512q0 -33 22.5 -57.5t59.5 -24.5h61q70 0 117 43t47 111v440l-123 21v184h492v-184l-123 -21v-614l123 -21v-184h-307l-41 61q-34 -25 -84 -43t-101 -18h-81q-127 0 -217.5 82.5t-90.5 204.5v532zM164 1434h266l266 -287h-245z" />
<glyph unicode="&#xfa;" d="M20 840v184h492v-184l-123 -21v-512q0 -33 22.5 -57.5t59.5 -24.5h61q70 0 117 43t47 111v440l-123 21v184h492v-184l-123 -21v-614l123 -21v-184h-307l-41 61q-34 -25 -84 -43t-101 -18h-81q-127 0 -217.5 82.5t-90.5 204.5v532zM389 1147l266 287h267l-287 -287h-246z " />
<glyph unicode="&#xfb;" d="M20 840v184h492v-184l-123 -21v-512q0 -33 22.5 -57.5t59.5 -24.5h61q70 0 117 43t47 111v440l-123 21v184h492v-184l-123 -21v-614l123 -21v-184h-307l-41 61q-34 -25 -84 -43t-101 -18h-81q-127 0 -217.5 82.5t-90.5 204.5v532zM174 1147l369 369l368 -369h-245 l-123 102l-123 -102h-246z" />
<glyph unicode="&#xfc;" d="M20 840v184h492v-184l-123 -21v-512q0 -33 22.5 -57.5t59.5 -24.5h61q70 0 117 43t47 111v440l-123 21v184h492v-184l-123 -21v-614l123 -21v-184h-307l-41 61q-34 -25 -84 -43t-101 -18h-81q-127 0 -217.5 82.5t-90.5 204.5v532zM236 1147v246h245v-246h-245zM604 1147 v246h246v-246h-246z" />
<glyph unicode="&#xfd;" d="M20 840v184h492v-184l-123 -21v-522q0 -31 20.5 -51.5t51.5 -20.5h71q70 0 117 43t47 111v440l-123 21v184h492v-184l-123 -21v-901q0 -167 -119.5 -278t-290.5 -111h-266v225h266q69 0 116.5 47t47.5 117v133q-79 -51 -174 -51h-92q-122 0 -204.5 86t-82.5 211v522z M389 1147l266 287h267l-287 -287h-246z" />
<glyph unicode="&#xfe;" horiz-adv-x="1064" d="M41 -287l123 21v1605l-123 19v178h369v-532q30 20 71 20h215q124 0 205.5 -85.5t81.5 -211.5v-389q0 -139 -95.5 -238.5t-232.5 -99.5h-143q-27 0 -52.5 5t-37.5 10l-12 5v-286l122 -21v-184h-491v184zM410 328q0 -46 28 -74.5t74 -28.5h123q46 0 74 28.5t28 74.5v399 q0 31 -20 51.5t-51 20.5h-185q-29 0 -48.5 -18t-22.5 -46v-407z" />
<glyph unicode="&#xff;" d="M20 840v184h492v-184l-123 -21v-522q0 -31 20.5 -51.5t51.5 -20.5h71q70 0 117 43t47 111v440l-123 21v184h492v-184l-123 -21v-901q0 -167 -119.5 -278t-290.5 -111h-266v225h266q69 0 116.5 47t47.5 117v133q-79 -51 -174 -51h-92q-122 0 -204.5 86t-82.5 211v522z M236 1147v246h245v-246h-245zM604 1147v246h246v-246h-246z" />
<glyph unicode="&#x152;" horiz-adv-x="1761" d="M82 438v617q0 157 112 268t269 111h1257v-349h-184l-20 123h-431v-327h349l20 82h184v-431h-184l-20 123h-349v-430h431l20 144h184v-369h-1196q-184 0 -313 128t-129 310zM328 438q0 -88 64 -150.5t151 -62.5h80q85 0 149 58.5t68 144.5v627q0 64 -46.5 108.5 t-111.5 44.5h-199q-65 0 -110 -44.5t-45 -108.5v-617z" />
<glyph unicode="&#x153;" horiz-adv-x="1515" d="M82 338v389q0 126 81.5 211.5t205.5 85.5h245q94 0 164 -51q70 51 164 51h205q135 0 221 -83t86 -214q0 -121 -73.5 -196t-182.5 -101l-297 -72q6 -63 44.5 -98t98.5 -35h369v-225h-369q-140 0 -247 90q-97 -90 -224 -90h-163q-137 0 -232.5 99.5t-95.5 238.5zM328 328 q0 -46 28 -74.5t74 -28.5h123q46 0 74 28.5t28 74.5v399q0 31 -20 51.5t-51 20.5h-185q-31 0 -51 -20.5t-20 -51.5v-399zM901 594l246 61q61 15 61 72q0 33 -20 52.5t-51 19.5h-164q-29 0 -49 -18t-23 -46v-141z" />
<glyph unicode="&#x178;" horiz-adv-x="1290" d="M41 1249v185h491v-185l-102 -20l215 -379l215 379l-102 20v185h491v-185l-123 -20l-358 -615v-409l123 -21v-184h-492v184l123 21v409l-358 615zM338 1556v246h246v-246h-246zM707 1556v246h245v-246h-245z" />
<glyph unicode="&#x2c6;" horiz-adv-x="901" d="M82 1147l369 369l368 -369h-246l-122 102l-123 -102h-246z" />
<glyph unicode="&#x2dc;" horiz-adv-x="839" d="M82 1188q0 127 62 196.5t163 69.5q49 0 85.5 -22t72.5 -60q23 -23 36.5 -32t30.5 -9q16 0 28.5 17.5t12.5 44.5h185q0 -127 -62.5 -197t-163.5 -70q-49 0 -84.5 22t-72.5 60q-23 23 -37 32t-31 9q-16 0 -28.5 -17t-12.5 -44h-184z" />
<glyph unicode="&#x2000;" horiz-adv-x="1003" />
<glyph unicode="&#x2001;" horiz-adv-x="2007" />
<glyph unicode="&#x2002;" horiz-adv-x="1003" />
<glyph unicode="&#x2003;" horiz-adv-x="2007" />
<glyph unicode="&#x2004;" horiz-adv-x="669" />
<glyph unicode="&#x2005;" horiz-adv-x="501" />
<glyph unicode="&#x2006;" horiz-adv-x="334" />
<glyph unicode="&#x2007;" horiz-adv-x="334" />
<glyph unicode="&#x2008;" horiz-adv-x="250" />
<glyph unicode="&#x2009;" horiz-adv-x="401" />
<glyph unicode="&#x200a;" horiz-adv-x="111" />
<glyph unicode="&#x2010;" horiz-adv-x="675" d="M82 410v225h512v-225h-512z" />
<glyph unicode="&#x2011;" horiz-adv-x="675" d="M82 410v225h512v-225h-512z" />
<glyph unicode="&#x2012;" horiz-adv-x="675" d="M82 410v225h512v-225h-512z" />
<glyph unicode="&#x2013;" horiz-adv-x="880" d="M82 410v225h717v-225h-717z" />
<glyph unicode="&#x2014;" horiz-adv-x="1597" d="M82 410v225h1434v-225h-1434z" />
<glyph unicode="&#x2018;" horiz-adv-x="430" d="M82 983l41 451h225v-451h-266z" />
<glyph unicode="&#x2019;" horiz-adv-x="430" d="M82 983v451h266l-41 -451h-225z" />
<glyph unicode="&#x201a;" horiz-adv-x="430" d="M82 -225v450h266l-41 -450h-225z" />
<glyph unicode="&#x201c;" horiz-adv-x="819" d="M82 983l41 451h225v-451h-266zM471 983l41 451h225v-451h-266z" />
<glyph unicode="&#x201d;" horiz-adv-x="819" d="M82 983v451h266l-41 -451h-225zM471 983v451h266l-41 -451h-225z" />
<glyph unicode="&#x201e;" horiz-adv-x="819" d="M82 -225v450h266l-41 -450h-225zM471 -225v450h266l-41 -450h-225z" />
<glyph unicode="&#x2022;" horiz-adv-x="655" d="M61 717q0 110 78.5 188t188.5 78t188 -78t78 -188t-78 -188t-188 -78t-188.5 78t-78.5 188z" />
<glyph unicode="&#x2026;" horiz-adv-x="1413" d="M82 0v266h266v-266h-266zM573 0v266h267v-266h-267zM1065 0v266h266v-266h-266z" />
<glyph unicode="&#x202f;" horiz-adv-x="401" />
<glyph unicode="&#x2039;" horiz-adv-x="634" d="M41 512l287 410h266l-287 -410l287 -410h-266z" />
<glyph unicode="&#x203a;" horiz-adv-x="634" d="M41 102l287 410l-287 410h266l287 -410l-287 -410h-266z" />
<glyph unicode="&#x205f;" horiz-adv-x="501" />
<glyph unicode="&#x20ac;" d="M41 410v204l143 21v123l-143 20v205h143v72q0 157 111.5 268t269.5 111h479v-349h-184l-20 123h-254q-64 0 -110 -44.5t-46 -108.5v-72h614v-225h-614v-123h614v-225h-595q33 -83 108 -134t168 -51h319v-225h-339q-187 0 -329 115.5t-181 294.5h-154z" />
<glyph unicode="&#x2122;" horiz-adv-x="1597" d="M41 1167v267h614v-267h-123l-10 103h-71v-420l102 -10v-123h-410v123l103 10v420h-72l-10 -103h-123zM696 717v123l103 10v440l-103 10v134h328l102 -195l103 195h327v-134l-102 -10v-440l102 -10v-123h-389v123l82 10v256l-123 -225l-122 225v-256l81 -10v-123h-389z " />
</font>
</defs>
</svg>
